<?xml version="1.0" standalone="no"?>
<!DOCTYPE svg PUBLIC "-//W3C//DTD SVG 20010904//EN"
 "http://www.w3.org/TR/2001/REC-SVG-20010904/DTD/svg10.dtd">
<svg version="1.0" xmlns="http://www.w3.org/2000/svg"
 width="1024.000000pt" height="1024.000000pt" viewBox="0 0 1024.000000 1024.000000"
 preserveAspectRatio="xMidYMid meet">

<g transform="translate(0.000000,1024.000000) scale(0.100000,-0.100000)"
fill="#000000" stroke="none">
<path d="M0 5120 l0 -5120 5120 0 5120 0 0 5120 0 5120 -5120 0 -5120 0 0
-5120z m5265 4225 c104 -28 184 -74 266 -155 82 -81 135 -173 159 -277 l12
-53 294 0 c326 0 343 -3 385 -61 l24 -34 0 -382 c0 -370 -1 -382 -21 -409 -11
-15 -33 -37 -48 -48 -27 -21 -31 -21 -1209 -21 -1164 0 -1183 0 -1216 20 -19
11 -43 33 -55 48 -20 28 -21 40 -24 405 -2 362 -2 378 18 410 11 18 34 41 52
52 31 19 51 20 334 20 l301 0 12 55 c44 195 222 377 421 429 74 20 221 20 295
1z m-1655 -955 l0 -190 -540 0 -541 0 -24 -25 -25 -24 0 -3210 0 -3210 24 -28
24 -28 2592 0 2592 0 24 28 24 28 0 3210 0 3210 -25 24 -24 25 -541 0 -540 0
0 190 0 191 628 -3 627 -3 59 -29 c76 -37 135 -96 172 -172 l29 -59 3 -3355
c2 -3705 8 -3406 -61 -3506 -46 -67 -119 -121 -197 -144 -64 -20 -93 -20
-2795 -18 l-2730 3 -57 27 c-79 37 -142 98 -181 177 l-32 66 0 3370 c0 3229 1
3372 18 3414 41 101 131 186 228 216 35 11 167 14 657 14 l612 1 0 -190z m601
-1119 l39 -39 0 -561 c0 -620 2 -602 -63 -641 -31 -19 -54 -20 -590 -20 -607
0 -591 -1 -636 56 -21 26 -21 34 -21 597 l0 569 39 39 39 39 577 0 577 0 39
-39z m3018 -449 c54 -27 76 -65 76 -127 0 -62 -21 -97 -75 -126 -33 -18 -87
-19 -1295 -19 -1406 0 -1303 -5 -1352 69 -46 69 -19 165 57 203 33 17 115 18
1295 18 1180 0 1262 -1 1294 -18z m-3021 -1216 l37 -34 3 -566 c3 -626 5 -606
-61 -646 -31 -19 -54 -20 -601 -20 l-568 0 -39 39 -39 39 0 572 0 572 39 39
39 39 576 0 576 0 38 -34z m3030 -466 c50 -31 74 -76 69 -133 -5 -56 -28 -92
-77 -118 -33 -18 -87 -19 -1290 -19 l-1256 0 -44 23 c-102 51 -106 187 -8 247
32 20 53 20 1303 20 1250 0 1271 0 1303 -20z m-3030 -1214 l37 -34 3 -561 c3
-621 5 -601 -61 -641 -31 -19 -54 -20 -601 -20 l-568 0 -39 39 -39 39 0 567 0
567 39 39 39 39 576 0 576 0 38 -34z m3030 -456 c50 -31 74 -76 69 -133 -5
-57 -30 -95 -78 -119 -32 -17 -114 -18 -1299 -18 -1245 0 -1266 0 -1298 20
-98 60 -94 201 8 252 33 17 116 18 1300 18 1245 0 1266 0 1298 -20z"/>
<path d="M5032 9017 c-48 -15 -127 -90 -147 -139 -49 -119 5 -266 118 -325 49
-25 148 -29 203 -8 142 54 205 215 136 346 -59 113 -188 165 -310 126z"/>
<path d="M3120 6660 l0 -470 475 0 475 0 0 470 0 470 -475 0 -475 0 0 -470z
m386 274 c19 -9 47 -32 62 -50 l28 -33 26 33 c34 43 84 66 143 66 100 0 175
-79 175 -183 -1 -76 -32 -123 -188 -279 -80 -82 -151 -148 -157 -148 -20 0
-302 294 -324 337 -63 126 19 273 152 273 27 0 64 -7 83 -16z"/>
<path d="M3120 4990 l0 -470 475 0 475 0 0 470 0 470 -475 0 -475 0 0 -470z
m361 278 c44 -15 84 -44 99 -74 l13 -23 39 44 c44 50 92 69 154 62 115 -13
187 -150 139 -264 -17 -39 -310 -343 -331 -343 -6 0 -75 61 -152 135 -154 148
-192 205 -192 282 0 47 21 106 48 137 22 25 90 56 123 56 14 0 41 -5 60 -12z"/>
<path d="M3120 3315 c0 -436 1 -465 18 -465 9 0 222 0 472 0 l455 0 3 465 2
465 -475 0 -475 0 0 -465z m377 270 c20 -8 51 -31 69 -50 l33 -35 22 30 c43
58 138 85 206 59 92 -35 139 -158 98 -256 -16 -38 -310 -343 -330 -343 -5 0
-77 66 -158 145 -160 156 -186 196 -187 278 0 134 126 222 247 172z"/>
</g>
</svg>
