<svg xmlns="http://www.w3.org/2000/svg" viewBox="0 0 512 512" width="512" height="512">
  <!-- Простой белый фон -->
  <rect width="512" height="512" rx="96" ry="96" fill="white" stroke="#e2e8f0" stroke-width="8"/>
  
  <!-- Основная иконка - список с сердечком -->
  <g transform="translate(256, 256)">
    <!-- Документ/список -->
    <rect x="-80" y="-100" width="120" height="150" rx="8" ry="8" fill="#f8fafc" stroke="#e2e8f0" stroke-width="2"/>
    
    <!-- Заголовок списка -->
    <rect x="-60" y="-80" width="80" height="12" rx="6" fill="#374151"/>
    
    <!-- Пункты списка -->
    <circle cx="-50" cy="-50" r="4" fill="#6b7280"/>
    <rect x="-40" y="-54" width="60" height="8" rx="4" fill="#6b7280"/>
    
    <circle cx="-50" cy="-30" r="4" fill="#6b7280"/>
    <rect x="-40" y="-34" width="45" height="8" rx="4" fill="#6b7280"/>
    
    <circle cx="-50" cy="-10" r="4" fill="#6b7280"/>
    <rect x="-40" y="-14" width="55" height="8" rx="4" fill="#6b7280"/>
    
    <circle cx="-50" cy="10" r="4" fill="#6b7280"/>
    <rect x="-40" y="6" width="40" height="8" rx="4" fill="#6b7280"/>
    
    <!-- Маленькое красное сердечко -->
    <path d="M0,-10 C-8,-18 -20,-18 -20,-5 C-20,8 0,20 0,20 C0,20 20,8 20,-5 C20,-18 8,-18 0,-10 Z" 
          fill="#ef4444" 
          transform="translate(20, -20) scale(0.6)"/>
  </g>
</svg> 